Coordinates
version=1
nRows=11
nColumns=40
inDegrees=yes

Units are S.I. units (second, meters, Newtons, ...)
Angles are in degrees.

endheader
time	pelvis_tilt	pelvis_list	pelvis_rotation	pelvis_tx	pelvis_ty	pelvis_tz	hip_flexion_r	hip_adduction_r	hip_rotation_r	knee_angle_r	knee_angle_r_beta	ankle_angle_r	subtalar_angle_r	mtp_angle_r	hip_flexion_l	hip_adduction_l	hip_rotation_l	knee_angle_l	knee_angle_l_beta	ankle_angle_l	subtalar_angle_l	mtp_angle_l	lumbar_extension	lumbar_bending	lumbar_rotation	arm_flex_r	arm_add_r	arm_rot_r	elbow_flex_r	pro_sup_r	wrist_flex_r	wrist_dev_r	arm_flex_l	arm_add_l	arm_rot_l	elbow_flex_l	pro_sup_l	wrist_flex_l	wrist_dev_l
     13.77250000	     -3.83020638	     -2.65025083	      4.22917064	      0.89035434	      0.92118031	      0.44622062	      1.65624824	     -3.79282079	    -14.80518893	     32.25076430	     32.25076430	     15.31419277	     -0.17345226	    -12.03745757	     25.72641027	     -1.79451360	     -3.43840925	     25.37867672	     25.37867672	      6.87274296	    -16.83856499	      7.72534668	     -6.26850496	      4.31501556	      3.74980718	     23.13845290	    -14.87077054	    -13.09416125	     70.27469699	     45.14907439	      0.00000000	      0.00000000	     -5.88831800	     -7.93607810	     12.12708679	     26.39707459	     44.49218973	      0.00000000	      0.00000000
     13.78428571	     -3.86048977	     -2.54306172	      4.08347662	      0.89115700	      0.92243291	      0.44389032	      3.05301822	     -4.63415964	    -14.22634538	     35.50350660	     35.50350660	     13.50098663	     -1.01742352	    -13.45011642	     24.95949774	     -1.63123244	     -3.74671575	     25.03577333	     25.03577333	      7.33924002	    -16.53540303	      7.51927231	     -6.30636783	      4.31402886	      3.80617125	     21.56129288	    -14.76666101	    -12.92912352	     68.63327315	     45.19516781	      0.00000000	      0.00000000	     -4.86240048	     -7.95050137	     11.80036512	     26.97576297	     44.57435164	      0.00000000	      0.00000000
     13.79607143	     -3.83374062	     -2.43281766	      3.94127393	      0.89186560	      0.92362895	      0.44174183	      4.51550865	     -5.43866578	    -13.56346581	     38.87498264	     38.87498264	     11.58937801	     -1.97007359	    -14.38103688	     24.13966223	     -1.49436629	     -4.13915639	     24.69440324	     24.69440324	      7.75935343	    -16.17511942	      7.24833613	     -6.41311146	      4.28018930	      3.78326969	     20.01281630	    -14.58684648	    -12.73354288	     67.05008592	     45.23704615	      0.00000000	      0.00000000	     -3.76931585	     -8.03193387	     11.50436593	     27.61646473	     44.64701846	      0.00000000	      0.00000000
     13.80785714	     -3.84421520	     -2.51590313	      3.81531994	      0.89244491	      0.92464840	      0.43993917	      5.99635092	     -5.80337769	    -12.58629334	     41.82778282	     41.82778282	      8.21880500	     -4.35129772	    -18.51742310	     23.36173851	     -1.59979815	     -4.55188544	     24.27741834	     24.27741834	      7.84087692	    -15.69705430	      5.97813909	     -6.36542665	      4.40506837	      3.11979383	     19.74992905	    -14.01267280	    -12.08208381	     62.33076086	     45.38604660	      0.00000000	      0.00000000	     -3.38398073	     -8.07122422	      9.29549767	     29.17938938	     45.05747876	      0.00000000	      0.00000000
     13.81964286	     -3.82309394	     -2.39374402	      3.70112370	      0.89279167	      0.92550951	      0.43810542	      7.71221473	     -6.48959532	    -11.75336191	     45.35503888	     45.35503888	      6.40900894	     -5.34541374	    -18.21406449	     22.57732124	     -1.45544130	     -4.93129014	     23.93074087	     23.93074087	      8.25045725	    -15.26773967	      5.71200932	     -6.51668185	      4.35197693	      3.14993101	     17.98175131	    -13.90216253	    -11.82067157	     61.01467980	     45.41414395	      0.00000000	      0.00000000	     -2.16244174	     -8.26042299	      8.98937990	     29.87125771	     45.12630875	      0.00000000	      0.00000000
     13.83142857	     -3.77540008	     -2.35879343	      3.62132889	      0.89299348	      0.92630105	      0.43646550	      9.40514193	     -6.95616072	    -10.87798297	     48.68920683	     48.68920683	      4.60627042	     -6.46781595	    -17.57015339	     21.83319634	     -1.41322509	     -5.23719894	     23.67007424	     23.67007424	      8.61875660	    -14.81509054	      5.39631113	     -6.71412553	      4.39260065	      3.16432533	     16.25681048	    -13.78391196	    -11.57745127	     59.45355170	     45.45133179	      0.00000000	      0.00000000	     -0.85702694	     -8.47927036	      8.70457418	     30.65480901	     45.19060074	      0.00000000	      0.00000000
     13.84321429	     -3.80740525	     -2.48262873	      3.48792025	      0.89303124	      0.92682481	      0.43525472	     11.42051285	     -6.99868298	     -9.67092944	     52.27462523	     52.27462523	      4.35417434	     -7.19116911	    -12.39406329	     21.20364453	     -1.63053087	     -5.77928472	     23.40691558	     23.40691558	      8.72783001	    -14.15621214	      3.88310628	     -6.67163684	      4.50794341	      2.70250699	     16.14765300	    -13.45597926	    -10.68868138	     53.84879499	     45.61143003	      0.00000000	      0.00000000	     -0.34263823	     -8.71628728	      6.83417876	     32.69992935	     45.48523519	      0.00000000	      0.00000000
     13.85500000	     -3.78297763	     -2.39657476	      3.40757697	      0.89290441	      0.92734555	      0.43390605	     13.19937261	     -7.30709107	     -8.75739519	     55.29679160	     55.29679160	      2.88063572	     -8.40143855	    -11.70981512	     20.51963288	     -1.52676335	     -6.04174087	     23.16353048	     23.16353048	      9.12338208	    -13.82441501	      3.64777303	     -6.85008744	      4.47692367	      2.74462564	     14.35691197	    -13.32890453	    -10.42407214	     52.44793135	     45.64051858	      0.00000000	      0.00000000	      1.04857914	     -9.01745140	      6.55844751	     33.46811098	     45.54457214	      0.00000000	      0.00000000
     13.86678571	     -3.73573779	     -2.53157350	      3.33416685	      0.89266501	      0.92791103	      0.43291837	     15.05271579	     -7.19940665	     -7.81649193	     58.32582087	     58.32582087	      3.00968596	     -8.92573899	     -6.77877957	     19.89739114	     -1.74787211	     -6.44820831	     23.03742849	     23.03742849	      9.43795927	    -13.13473628	      2.76328435	     -6.96389913	      4.63892756	      2.47132159	     13.87788512	    -13.08461021	     -9.62981403	     47.69710623	     45.76755613	      0.00000000	      0.00000000	      2.10302583	     -9.32807984	      5.72893890	     34.91645994	     45.67556208	      0.00000000	      0.00000000
     13.87857143	     -3.74446671	     -2.48941920	      3.23848452	      0.89229917	      0.92838194	      0.43190054	     16.81379079	     -7.23645249	     -6.94875768	     60.79063701	     60.79063701	      2.03064017	    -10.14346415	     -6.14112886	     19.25766710	     -1.67830936	     -6.58791377	     22.77041137	     22.77041137	      9.82015053	    -12.93640612	      2.59159366	     -7.08957394	      4.64400315	      2.67627700	     12.03000627	    -13.05730415	     -9.36157165	     46.14063973	     45.80067586	      0.00000000	      0.00000000	      3.61393597	     -9.59813726	      5.47779737	     35.82717345	     45.73071498	      0.00000000	      0.00000000
     13.89035714	     -3.68799292	     -2.55713799	      3.16482046	      0.89183807	      0.92898329	      0.43109600	     18.44382714	     -7.10489264	     -6.28516225	     62.93358227	     62.93358227	      1.46314604	    -11.22382377	     -5.19126772	     18.60154704	     -1.76507635	     -6.77780277	     22.56288396	     22.56288396	     10.14384259	    -12.62670618	      2.34783179	     -7.30220963	      4.75014710	      2.95312471	     10.34470304	    -13.03838096	     -9.01469346	     43.96336601	     45.85390567	      0.00000000	      0.00000000	      5.20264773	     -9.84047677	      5.28545409	     36.81577958	     45.77874614	      0.00000000	      0.00000000
